<svg width="20" height="20" viewBox="0 0 20 20" fill="none" xmlns="http://www.w3.org/2000/svg">
<circle cx="10" cy="10" r="10" fill="#111827"/>
<path d="M6.57988 8.52311C6.28903 8.23473 5.81748 8.23473 5.52663 8.52311C5.23578 8.81148 5.23578 9.27903 5.52663 9.56741L9.47061 13.4779C9.76146 13.7662 10.233 13.7662 10.5239 13.4779C10.8147 13.1895 10.8147 12.7219 10.5239 12.4336L6.57988 8.52311Z" fill="white"/>
<path d="M9.47615 12.4326C9.1853 12.721 9.1853 13.1885 9.47615 13.4769C9.767 13.7653 10.2386 13.7653 10.5294 13.4769L14.4734 9.56645C14.7642 9.27807 14.7642 8.81052 14.4734 8.52215C14.1825 8.23377 13.711 8.23377 13.4201 8.52215L9.47615 12.4326Z" fill="white"/>
</svg>
