<svg width="48" height="48" viewBox="0 0 48 48" fill="none" xmlns="http://www.w3.org/2000/svg">
<rect width="48" height="48" rx="3" fill="#F0FDFA"/>
<path d="M14.25 27.75L19.409 22.591C19.6179 22.3821 19.866 22.2163 20.139 22.1033C20.4119 21.9902 20.7045 21.932 21 21.932C21.2955 21.932 21.5881 21.9902 21.861 22.1033C22.134 22.2163 22.3821 22.3821 22.591 22.591L27.75 27.75M26.25 26.25L27.659 24.841C27.8679 24.6321 28.116 24.4663 28.389 24.3533C28.6619 24.2402 28.9545 24.182 29.25 24.182C29.5455 24.182 29.8381 24.2402 30.111 24.3533C30.384 24.4663 30.6321 24.6321 30.841 24.841L33.75 27.75M15.75 31.5H32.25C32.6478 31.5 33.0294 31.342 33.3107 31.0607C33.592 30.7794 33.75 30.3978 33.75 30V18C33.75 17.6022 33.592 17.2206 33.3107 16.9393C33.0294 16.658 32.6478 16.5 32.25 16.5H15.75C15.3522 16.5 14.9706 16.658 14.6893 16.9393C14.408 17.2206 14.25 17.6022 14.25 18V30C14.25 30.3978 14.408 30.7794 14.6893 31.0607C14.9706 31.342 15.3522 31.5 15.75 31.5ZM26.25 20.25H26.258V20.258H26.25V20.25ZM26.625 20.25C26.625 20.3495 26.5855 20.4448 26.5152 20.5152C26.4448 20.5855 26.3495 20.625 26.25 20.625C26.1505 20.625 26.0552 20.5855 25.9848 20.5152C25.9145 20.4448 25.875 20.3495 25.875 20.25C25.875 20.1505 25.9145 20.0552 25.9848 19.9848C26.0552 19.9145 26.1505 19.875 26.25 19.875C26.3495 19.875 26.4448 19.9145 26.5152 19.9848C26.5855 20.0552 26.625 20.1505 26.625 20.25Z" stroke="#2B877F" stroke-width="1.5" stroke-linecap="round" stroke-linejoin="round"/>
</svg>
