<svg width="48" height="48" viewBox="0 0 48 48" fill="none" xmlns="http://www.w3.org/2000/svg">
<rect width="48" height="48" rx="3" fill="#F0F9FF"/>
<path d="M27 31.128C27.853 31.3757 28.7368 31.5009 29.625 31.5C31.0534 31.5021 32.4633 31.1764 33.746 30.548C33.7839 29.6517 33.5286 28.7675 33.0188 28.0293C32.509 27.2912 31.7724 26.7394 30.9207 26.4575C30.0691 26.1757 29.1487 26.1791 28.2992 26.4674C27.4497 26.7557 26.7173 27.313 26.213 28.055M27 31.128V31.125C27 30.012 26.714 28.965 26.213 28.055M27 31.128V31.234C25.0755 32.3931 22.8706 33.0038 20.624 33C18.293 33 16.112 32.355 14.25 31.234L14.249 31.125C14.2483 29.7095 14.7186 28.3339 15.586 27.2153C16.4534 26.0966 17.6684 25.2984 19.0395 24.9466C20.4106 24.5948 21.8598 24.7093 23.1587 25.2721C24.4575 25.8349 25.5321 26.814 26.213 28.055M24 18.375C24 19.2701 23.6444 20.1285 23.0115 20.7615C22.3786 21.3944 21.5201 21.75 20.625 21.75C19.7299 21.75 18.8715 21.3944 18.2385 20.7615C17.6056 20.1285 17.25 19.2701 17.25 18.375C17.25 17.4799 17.6056 16.6214 18.2385 15.9885C18.8715 15.3556 19.7299 15 20.625 15C21.5201 15 22.3786 15.3556 23.0115 15.9885C23.6444 16.6214 24 17.4799 24 18.375ZM32.25 20.625C32.25 21.3212 31.9735 21.9889 31.4812 22.4812C30.9889 22.9734 30.3212 23.25 29.625 23.25C28.9288 23.25 28.2612 22.9734 27.7689 22.4812C27.2766 21.9889 27 21.3212 27 20.625C27 19.9288 27.2766 19.2611 27.7689 18.7688C28.2612 18.2766 28.9288 18 29.625 18C30.3212 18 30.9889 18.2766 31.4812 18.7688C31.9735 19.2611 32.25 19.9288 32.25 20.625Z" stroke="#0369A1" stroke-width="1.5" stroke-linecap="round" stroke-linejoin="round"/>
</svg>
