<svg width="48" height="48" viewBox="0 0 48 48" fill="none" xmlns="http://www.w3.org/2000/svg">
<rect width="48" height="48" rx="3" fill="#FFF1F2"/>
<path d="M23.25 23.25L23.291 23.23C23.4192 23.1659 23.5631 23.14 23.7057 23.1552C23.8482 23.1703 23.9834 23.2261 24.0952 23.3157C24.2071 23.4054 24.2909 23.5252 24.3368 23.661C24.3826 23.7968 24.3886 23.9429 24.354 24.082L23.646 26.918C23.6111 27.0572 23.6169 27.2034 23.6627 27.3394C23.7084 27.4754 23.7922 27.5954 23.9041 27.6852C24.016 27.775 24.1513 27.8308 24.294 27.846C24.4367 27.8612 24.5807 27.8352 24.709 27.771L24.75 27.75M33 24C33 25.1819 32.7672 26.3522 32.3149 27.4442C31.8626 28.5361 31.1997 29.5282 30.364 30.364C29.5282 31.1997 28.5361 31.8626 27.4442 32.3149C26.3522 32.7672 25.1819 33 24 33C22.8181 33 21.6478 32.7672 20.5558 32.3149C19.4639 31.8626 18.4718 31.1997 17.636 30.364C16.8003 29.5282 16.1374 28.5361 15.6851 27.4442C15.2328 26.3522 15 25.1819 15 24C15 21.6131 15.9482 19.3239 17.636 17.636C19.3239 15.9482 21.6131 15 24 15C26.3869 15 28.6761 15.9482 30.364 17.636C32.0518 19.3239 33 21.6131 33 24ZM24 20.25H24.008V20.258H24V20.25Z" stroke="#BE123C" stroke-width="1.5" stroke-linecap="round" stroke-linejoin="round"/>
</svg>
