<svg width="128" height="25" viewBox="0 0 128 25" fill="none" xmlns="http://www.w3.org/2000/svg">
<g clip-path="url(#clip0_1_16)">
<path d="M16.2096 24.4445H12.2969L11.4585 22.5C10.8982 23.2658 10.1193 23.8465 9.22272 24.1667C8.19728 24.7309 7.04098 25.0183 5.86902 25.0001C4.35726 25.0001 2.88629 24.5127 1.67688 23.6112C1.12835 23.1242 0.693914 22.5236 0.404193 21.8517C0.114473 21.1798 -0.0235024 20.4529 7.27745e-06 19.7222C7.27745e-06 16.9444 1.95636 15.2778 5.86902 14.4445L10.6201 13.6112C10.9101 13.4566 11.148 13.2205 11.304 12.9325C11.4601 12.6445 11.5274 12.3172 11.4976 11.9914C11.4678 11.6657 11.3422 11.3558 11.1365 11.1005C10.9308 10.8452 10.6539 10.6557 10.3406 10.5556C9.69602 10.0892 8.89435 9.89002 8.10479 9.99999C7.6063 9.93937 7.1006 9.98219 6.61957 10.1256C6.13854 10.2691 5.69263 10.51 5.31003 10.8334C4.91883 11.1778 4.61405 11.6083 4.41995 12.0906C4.22586 12.5729 4.14784 13.0936 4.19215 13.6112L0.2795 11.9445C0.624393 10.3915 1.51648 9.0122 2.79477 8.0556C4.31119 6.89415 6.19229 6.30371 8.10479 6.38891C10.1031 6.30766 12.071 6.89449 13.6943 8.0556C14.3084 8.62445 14.7988 9.31226 15.1352 10.0766C15.4717 10.841 15.6471 11.6657 15.6507 12.5001V20.8334L16.2096 24.4445ZM6.98691 21.6667C7.59255 21.7178 8.2023 21.6456 8.77892 21.4545C9.35554 21.2635 9.88693 20.9576 10.3406 20.5556C11.0453 19.6893 11.4388 18.6139 11.4585 17.5V16.1111C10.0419 16.73 8.5299 17.1056 6.98691 17.2222C5.31005 17.7778 4.47164 18.3333 4.47164 19.7222C4.44766 20.0118 4.51565 20.3016 4.66606 20.5508C4.81646 20.7999 5.04168 20.9959 5.31003 21.1111C5.53688 21.3121 5.80259 21.4651 6.0909 21.5606C6.37921 21.6562 6.68409 21.6922 6.98691 21.6667Z" fill="#231F20"/>
<path d="M39.6856 6.38889C40.5331 6.33397 41.3814 6.48187 42.1595 6.82021C42.9376 7.15854 43.6227 7.67747 44.1572 8.33337C44.764 9.00977 45.2256 9.80193 45.5139 10.6616C45.8022 11.5213 45.9111 12.4304 45.8341 13.3333V24.4445H41.3625V14.1666C41.3625 11.6666 40.524 10.5556 38.2882 10.5556C36.0524 10.5556 34.9345 11.9444 34.9345 14.7222V24.4445H30.7424V14.1666C30.8034 13.6712 30.7604 13.1685 30.6161 12.6904C30.4718 12.2123 30.2293 11.7691 29.9039 11.3889C29.6163 11.0944 29.2667 10.8671 28.8801 10.723C28.4935 10.5789 28.0796 10.5217 27.6681 10.5556C25.7118 10.5556 24.3144 11.9445 24.3144 15V24.4445H19.8428V7.22219H24.3144V9.16667C24.7747 8.31582 25.4612 7.60689 26.2989 7.11708C27.1367 6.62727 28.0936 6.37538 29.0655 6.38889C30.1208 6.30741 31.1752 6.55889 32.0784 7.1075C32.9816 7.6561 33.6876 8.47388 34.0961 9.44447C34.6575 8.47572 35.4754 7.67855 36.461 7.1398C37.4465 6.60104 38.5619 6.34133 39.6856 6.38889Z" fill="#231F20"/>
<path d="M65.9564 15.5555V17.2222H53.6594C53.611 17.8059 53.6959 18.393 53.9077 18.9396C54.1195 19.4862 54.4529 19.9783 54.8828 20.3789C55.3128 20.7795 55.8282 21.0784 56.3906 21.2533C56.9531 21.4282 57.548 21.4745 58.131 21.3888C59.1399 21.412 60.1325 21.1329 60.9798 20.588C61.8271 20.0431 62.4899 19.2575 62.8821 18.3333L65.9564 21.111C65.0448 22.4545 63.8009 23.5423 62.3441 24.2698C60.8873 24.9973 59.2667 25.3399 57.6382 25.2649C56.0096 25.1899 54.4278 24.6996 53.045 23.8413C51.6622 22.983 50.5248 21.7856 49.7423 20.364C48.9597 18.9425 48.5582 17.3448 48.5765 15.7245C48.5948 14.1042 49.0323 12.5158 49.8468 11.1121C50.6613 9.70844 51.8255 8.5367 53.2274 7.7095C54.6292 6.8823 56.2217 6.42749 57.8516 6.38885C58.9568 6.33387 60.06 6.53051 61.0771 6.96377C62.0942 7.39703 62.9983 8.05545 63.7205 8.88883C64.5295 9.79069 65.145 10.847 65.5294 11.9932C65.9138 13.1395 66.0591 14.3516 65.9564 15.5555ZM57.5721 9.99993C55.3363 9.99993 53.9389 11.3888 53.6594 14.1666H61.4847C61.5313 13.6073 61.4554 13.0446 61.2625 12.5171C61.0695 11.9897 60.764 11.5101 60.3668 11.1111C60.0079 10.7382 59.5727 10.446 59.0907 10.2543C58.6086 10.0627 58.0907 9.97589 57.5721 9.99993Z" fill="#231F20"/>
<path d="M79.3711 6.38884C80.2856 6.34416 81.1972 6.52346 82.0256 6.91095C82.854 7.29843 83.574 7.88219 84.1223 8.61103C85.381 10.1787 85.9818 12.1691 85.7991 14.1666V24.4444H81.607V15C81.7586 13.8236 81.4592 12.6337 80.7685 11.6666C80.4376 11.2588 80.0067 10.9424 79.5173 10.7479C79.0279 10.5533 78.4964 10.487 77.9738 10.5555C77.453 10.5115 76.9292 10.589 76.4439 10.7819C75.9587 10.9748 75.5255 11.2778 75.179 11.6666C74.3455 12.6787 73.9442 13.9751 74.0611 15.2778V24.4444H69.5895V7.22214H74.0611V9.44441C74.55 8.4759 75.3132 7.67061 76.2566 7.12771C77.2001 6.5848 78.2827 6.32797 79.3711 6.38884Z" fill="#231F20"/>
<path d="M103.686 3.05176e-05H107.878V24.4444H103.686V22.5C102.906 23.317 101.964 23.9626 100.918 24.3953C99.8724 24.8279 98.7471 25.0379 97.6148 25.0117C96.4825 24.9856 95.3683 24.7238 94.344 24.2434C93.3198 23.7629 92.4082 23.0744 91.6681 22.2223C90.8439 21.3761 90.1972 20.3754 89.7654 19.2787C89.3336 18.1819 89.1253 17.0108 89.1528 15.8333C89.0621 13.4154 89.8565 11.0469 91.3887 9.16666C93.08 7.43603 95.3896 6.43794 97.8166 6.38889C98.9192 6.35383 100.016 6.5595 101.03 6.99144C102.044 7.42338 102.951 8.07107 103.686 8.88887V3.05176e-05ZM98.655 21.1111C99.3492 21.1328 100.039 20.9936 100.67 20.7043C101.3 20.415 101.854 19.9836 102.288 19.4445C102.798 18.9997 103.191 18.4388 103.434 17.8098C103.678 17.1809 103.764 16.5027 103.686 15.8333C103.78 14.7983 103.548 13.7598 103.021 12.8621C102.494 11.9644 101.699 11.2521 100.746 10.8244C99.7932 10.3966 98.7298 10.2746 97.7039 10.4754C96.678 10.6761 95.7405 11.1896 95.0218 11.9444C94.0706 13.0141 93.5702 14.4067 93.6244 15.8333C93.6135 17.1694 94.1129 18.46 95.0218 19.4445C95.4556 19.9836 96.0097 20.415 96.6404 20.7043C97.271 20.9936 97.9608 21.1328 98.655 21.1111Z" fill="#231F20"/>
<path d="M128 24.4445H124.087L123.249 22.5C122.689 23.2658 121.91 23.8465 121.013 24.1667C119.975 24.6987 118.827 24.984 117.659 25.0001C116.148 25.0001 114.677 24.5127 113.467 23.6112C112.919 23.1242 112.484 22.5236 112.195 21.8517C111.905 21.1798 111.767 20.4529 111.79 19.7222C111.79 16.9444 113.747 15.2778 117.659 14.4445L122.41 13.6112C122.679 13.4959 122.904 13.2999 123.054 13.0507C123.205 12.8016 123.273 12.5118 123.249 12.2223C123.232 11.8698 123.119 11.5285 122.923 11.2349C122.726 10.9412 122.452 10.7064 122.131 10.5556C121.486 10.0892 120.685 9.89002 119.895 9.99999C118.807 9.93933 117.728 10.2318 116.821 10.8334C116.216 11.6296 115.918 12.6153 115.983 13.6112L112.07 11.9445C112.415 10.3915 113.307 9.0122 114.585 8.0556C116.102 6.89415 117.983 6.30371 119.895 6.38891C121.893 6.30766 123.861 6.89449 125.485 8.0556C126.099 8.62445 126.589 9.31226 126.926 10.0766C127.262 10.841 127.438 11.6657 127.441 12.5001V20.8334L128 24.4445ZM118.777 21.6667C119.383 21.7178 119.993 21.6456 120.569 21.4545C121.146 21.2635 121.677 20.9576 122.131 20.5556C122.836 19.6893 123.229 18.6139 123.249 17.5V16.1111C121.832 16.73 120.32 17.1056 118.777 17.2222C117.1 17.7778 116.262 18.3333 116.262 19.7222C116.281 20.2355 116.479 20.7263 116.821 21.1111L118.777 21.6667Z" fill="#231F20"/>
</g>
<defs>
<clipPath id="clip0_1_16">
<rect width="128" height="25" fill="white"/>
</clipPath>
</defs>
</svg>
