<svg width="34" height="34" viewBox="0 0 34 34" fill="none" xmlns="http://www.w3.org/2000/svg">
<circle cx="17" cy="17" r="17" fill="#111827"/>
<path d="M21.5676 14.782C22.9095 14.782 24 13.7101 24 12.391C24 11.0719 22.9095 10 21.5676 10C20.2257 10 19.1352 11.0719 19.1352 12.391C19.1352 12.4315 19.1398 12.4697 19.1421 12.5101L14.5036 15.0247C14.0258 14.5663 13.372 14.2809 12.6519 14.2809C11.1911 14.2809 10 15.4494 10 16.8876C10 18.3236 11.1888 19.4944 12.6519 19.4944C13.3057 19.4944 13.9024 19.2607 14.3664 18.8719L17.583 21.1371C17.5509 21.2899 17.5349 21.4472 17.5349 21.609C17.5349 22.9281 18.6254 24 19.9673 24C21.3093 24 22.3997 22.9281 22.3997 21.609C22.3997 20.2899 21.3093 19.218 19.9673 19.218C19.1238 19.218 18.3808 19.6427 17.9442 20.2854L14.9517 18.1798C15.1734 17.7978 15.3037 17.3596 15.3037 16.8876C15.3037 16.4831 15.2077 16.1034 15.0408 15.7618L19.373 13.4135C19.7616 14.2202 20.5983 14.782 21.5676 14.782ZM21.5676 10.9011C22.4043 10.9011 23.0856 11.5708 23.0856 12.3933C23.0856 13.2157 22.4043 13.8854 21.5676 13.8854C20.7309 13.8854 20.0496 13.2157 20.0496 12.3933C20.0496 11.5708 20.7309 10.9011 21.5676 10.9011ZM12.6519 18.5955C11.694 18.5955 10.9144 17.8292 10.9144 16.8876C10.9144 15.9461 11.694 15.1798 12.6519 15.1798C13.6097 15.1798 14.3893 15.9461 14.3893 16.8876C14.3893 17.8292 13.6097 18.5955 12.6519 18.5955ZM19.9673 20.1169C20.804 20.1169 21.4853 20.7865 21.4853 21.609C21.4853 22.4315 20.804 23.1011 19.9673 23.1011C19.1306 23.1011 18.4494 22.4315 18.4494 21.609C18.4494 20.7865 19.1306 20.1169 19.9673 20.1169Z" fill="white"/>
</svg>
